<svg xmlns="http://www.w3.org/2000/svg" version="1.1" xmlns:xlink="http://www.w3.org/1999/xlink" xmlns:svgjs="http://svgjs.dev/svgjs" width="304" height="304" viewBox="0 0 304 304">
  <rect width="304" height="304" fill="#0042c7"></rect>
  <g transform="matrix(1,0,0,1,-0.1842424242424272,57.57651821862348)"><svg viewBox="0 0 396 247" data-background-color="#0042c7" preserveAspectRatio="xMidYMid meet" height="189" width="304" xmlns="http://www.w3.org/2000/svg" xmlns:xlink="http://www.w3.org/1999/xlink">
      <g id="tight-bounds" transform="matrix(1,0,0,1,0.2400000000000091,-0.09999999999999432)"><svg viewBox="0 0 395.52 247.2" height="247.2" width="395.52">
          <g><svg></svg></g>
          <g><svg viewBox="0 0 395.52 247.2" height="247.2" width="395.52">
              <g transform="matrix(1,0,0,1,147.43065655976676,47.215199999999996)"><svg viewBox="0 0 100.65868688046648 152.7696" height="152.7696" width="100.65868688046648">
                  <g><svg viewBox="0 0 100.65868688046648 152.7696" height="152.7696" width="100.65868688046648">
                      <g><svg viewBox="0 0 100.65868688046648 152.7696" height="152.7696" width="100.65868688046648">
                          <g><svg viewBox="0 0 100.65868688046648 152.7696" height="152.7696" width="100.65868688046648">
                              <g id="textblocktransform"><svg viewBox="0 0 100.65868688046648 152.7696" height="152.7696" width="100.65868688046648" id="textblock">
                                  <g><svg viewBox="0 0 100.65868688046648 152.7696" height="152.7696" width="100.65868688046648">
                                      <g transform="matrix(1,0,0,1,0,0)"><svg width="100.65868688046648" viewBox="3.5 -34.3 22.6 34.3" height="152.7696" data-palette-color="#e1e1dd">
                                          <path d="M3.5 0L3.5-34.3 7.9-34.3 7.9-19.55 21.7-19.55 21.7-34.3 26.1-34.3 26.1 0 21.7 0 21.7-15.55 7.9-15.55 7.9 0 3.5 0Z" opacity="1" transform="matrix(1,0,0,1,0,0)" fill="#e1e1dd" class="wordmark-text-0" data-fill-palette-color="primary" id="text-0"></path>
                                        </svg></g>
                                    </svg></g>
                                </svg></g>
                            </svg></g>
                        </svg></g>
                    </svg></g>
                </svg></g>
              <path d="M65.788 41.215L65.788 0 312.988 0 312.988 247.2 65.788 247.2 65.788 205.985 79.565 205.985 79.565 233.423 299.211 233.423 299.211 13.777 79.565 13.777 79.565 41.215Z" fill="#e1e1dd" stroke="transparent" data-fill-palette-color="tertiary"></path>
            </svg></g>
          <defs></defs>
        </svg>
        <rect width="395.52" height="247.2" fill="none" stroke="none" visibility="hidden"></rect>
      </g>
    </svg></g>
</svg>